{"title":"Flash.of.Genius.2008.DVDRIP.XviD-ZEKTORM","uid":4705436,"size":756956883,"categoryP":"video","categoryS":"movies","magnet":"?xt=urn:btih:c7de6ec623b1a9bf7c9674e4ae12bfaf07fff3b7&amp;dn=Flash.of.Genius.2008.DVDRIP.XviD-ZEKTORM&amp;tr=udp%3A%2F%2Ftracker.openbittorrent.com%3A80&amp;tr=udp%3A%2F%2Fopen.demonii.com%3A1337&amp;tr=udp%3A%2F%2Ftracker.coppersurfer.tk%3A6969&amp;tr=udp%3A%2F%2Fexodus.desync.com%3A6969","seeders":1,"leechers":3,"uploader":"blowley","files":4,"time":1233846257,"description":"Title                            : Flash of Genius\nYear                             : 2008\nGenre                            : Drama\niMDB Rate                        : User Rating: 6.7/10   529 votes\niMDB URL                         : http://www.imdb.com/title/tt1054588/\n\nComplete name                    : Flash.of.Genius.2008.DVDRIP.XviD-ZEKTORM.avi\nFormat                           : AVI\nFile size                        : 701 MiB\nDuration                         : 1h 59mn\nOverall bit rate                 : 820 Kbps\nSubtitles                        : English, Spanish, French (Format: VobSub)\nSource                           : DVD NTSC\n\nVideo\nFormat                           : MPEG-4 Visual\nFormat profile                   : Streaming Video@L1\nCodec ID                         : DX50\nCodec ID/Hint                    : DivX 5\nDuration                         : 1h 59mn\nBit rate                         : 685 Kbps\nWidth                            : 720 pixels\nHeight                           : 304 pixels\nDisplay aspect ratio             : 2.35\nFrame rate                       : 23.976 fps\nResolution                       : 24 bits\nColorimetry                      : 4:2:0\nScan type                        : Progressive\nBits/(Pixel*Frame)               : 0.131\nStream size                      : 586 MiB (84%)\nWriting library                  : XviD\n\nAudio\nFormat                           : MPEG Audio\nFormat version                   : Version 1\nFormat profile                   : Layer 3\nCodec ID                         : 55\nCodec ID/Hint                    : MP3\nDuration                         : 1h 59mn\nBit rate mode                    : Constant\nBit rate                         : 128 Kbps\nMinimum bit rate                 : 128 Kbps\nChannel(s)                       : 2 channels\nSampling rate                    : 48.0 KHz\nResolution                       : 16 bits\nStream size                      : 109 MiB (16%)\nWriting library                  : LAME3.9\nEncoding settings                : CBR\n","torrent":{"xt":"urn:btih:c7de6ec623b1a9bf7c9674e4ae12bfaf07fff3b7","amp;dn":"Flash.of.Genius.2008.DVDRIP.XviD-ZEKTORM","amp;tr":["udp%3A%2F%2Ftracker.openbittorrent.com%3A80","udp%3A%2F%2Fopen.demonii.com%3A1337","udp%3A%2F%2Ftracker.coppersurfer.tk%3A6969","udp%3A%2F%2Fexodus.desync.com%3A6969"],"infoHash":"c7de6ec623b1a9bf7c9674e4ae12bfaf07fff3b7","infoHashBuffer":{"type":"Buffer","data":[199,222,110,198,35,177,169,191,124,150,116,228,174,18,191,175,7,255,243,183]},"announce":[],"urlList":[]}}